<?xml version="1.0" encoding="UTF-8"?>
<svg id="uuid-e0c305fa-9c10-4d39-8c53-182eb8f43531" data-name="Layer 2" xmlns="http://www.w3.org/2000/svg" viewBox="0 0 501 501">
  <defs>
    <style>
      .uuid-546ed291-16a9-4610-9b07-45bd93c9d612, .uuid-12f6392d-fa74-4923-a3d2-9c613444fb97 {
        fill: #ff6700;
      }

      .uuid-12f6392d-fa74-4923-a3d2-9c613444fb97 {
        stroke: #231f20;
      }

      .uuid-12f6392d-fa74-4923-a3d2-9c613444fb97, .uuid-11bb5e0b-346c-410f-9d42-4b81b791a247, .uuid-7d30d1ac-eb75-47f2-8d34-95b4234cbb0c {
        stroke-miterlimit: 10;
      }

      .uuid-11bb5e0b-346c-410f-9d42-4b81b791a247 {
        fill: #fff;
      }

      .uuid-11bb5e0b-346c-410f-9d42-4b81b791a247, .uuid-7d30d1ac-eb75-47f2-8d34-95b4234cbb0c {
        stroke: #000;
      }

      .uuid-7d30d1ac-eb75-47f2-8d34-95b4234cbb0c {
        fill: none;
      }
    </style>
  </defs>
  <g id="uuid-e996d305-db57-49ae-a699-d2bf66333481" data-name="edu_hat">
    <rect class="uuid-12f6392d-fa74-4923-a3d2-9c613444fb97" x=".5" y=".5" width="500" height="500"/>
    <g id="uuid-2e862aaf-8c30-466a-81fe-27d9486f9573" data-name="white">
      <g>
        <path class="uuid-11bb5e0b-346c-410f-9d42-4b81b791a247" d="m83.3,251.15l-.8,111.49c-2.28.22-5.66,3.36-6.12,5.92l-4.3,23.88c-.32,1.81-1.3,3.43-2.73,4.55l-1.49,1.17c-1.96,1.54-1.43,4.67.93,5.46l18.25,6.15c2.19.74,4.58-.38,5.44-2.55h0c2.65-6.68,3.5-13.45,4.01-21.01v-8.69c0-5.33-1.89-12.45-5.53-13.93l1-111.12c-1.79-1.65-6.49-2.42-8.66-1.33Z"/>
        <ellipse class="uuid-11bb5e0b-346c-410f-9d42-4b81b791a247" cx="86.08" cy="362.34" rx="7.33" ry="7.41"/>
      </g>
      <path class="uuid-11bb5e0b-346c-410f-9d42-4b81b791a247" d="m113.37,228.2l135.41,58.35,135.41-58.35v83.2c0,4.32-1.68,8.51-4.78,11.9h0c-66.61,72.93-194.65,72.93-261.26,0h0c-3.09-3.39-4.78-7.58-4.78-11.9v-83.2Z"/>
      <path class="uuid-11bb5e0b-346c-410f-9d42-4b81b791a247" d="m480.94,221.45l-228.19-97.98c-1.44-.62-3.07-.62-4.5,0L20.06,221.45c-1.36.58-1.36,2.5,0,3.08l228.19,97.98c1.44.62,3.07.62,4.5,0l228.19-97.98c1.36-.58,1.36-2.5,0-3.08Z"/>
      <path class="uuid-546ed291-16a9-4610-9b07-45bd93c9d612" d="m328.02,252.07c14.95-16.09,14.28-38.26-8.84-56.94-14.62-11.84-39.15-32.09-102.93-39.69-.61-.06-14.65-1.98-35.32-2.65l-30.24,12.98c21.45-.26,39.98,1.33,50.95,2.32,37.56,3.36,56.74,11.72,79.3,26.82,21.65,14.54,18.57,37.41-.18,49.79-25.04,16.55-55.93,23.69-103.45,23.2-43.71-.44-78.34-19.17-84.49-32.21-6.19-13.06-7.43-23.35,22.93-33.93,32.06-11.16,75.89-4.78,93.79,4.32,21.41,10.85,13.91,23.19-4.14,26.67-20.65,4.01-44.68.37-44.67-6.96-.07-10.53,19.07-10.3,19.07-10.3,0,0-43.25-13.86-59.52,7.61-14.95,19.75,49.53,35.54,95.3,27.75,25.46-4.32,79.54-18.71,31.55-52.89-28.1-20.04-87.35-23.34-133.1-16.47l-59.02,25.34c-6.01,9.45-4.48,19.82-.43,28.44.78,1.65,1.88,3.45,3.21,5.33l99.98,42.93c2.94.34,5.86.69,8.96.96,74.05,6.42,143.9-13.71,161.29-32.44Z"/>
      <path class="uuid-7d30d1ac-eb75-47f2-8d34-95b4234cbb0c" d="m480.94,221.45l-228.19-97.98c-1.44-.62-3.07-.62-4.5,0L20.06,221.45c-1.36.58-1.36,2.5,0,3.08l228.19,97.98c1.44.62,3.07.62,4.5,0l228.19-97.98c1.36-.58,1.36-2.5,0-3.08Z"/>
    </g>
  </g>
</svg>